# xmcd
#
# Track frame offsets:
#	151
#	8249
#	19215
#	31034
#	55536
#	64128
#	82271
#	89568
#	100038
#	112902
#	122395
#	135145
#	142115
#	150611
#	169955
#	175488
#	187780
#	196190
#	207620
#	215428
#	222622
#	231304
#	244246
#	249315
#	262968
#	273296
#
# Disc length: 3733 seconds
#
# Revision: 2
# Processed by: cddbd v1.5.2PL0 Copyright (c) Steve Scherf et al.
# Submitted via: EasyCDDAExtractor 10.5.1.1
#
DISCID=6d0e931a
DTITLE=MAC WISEMAN - THE BEST OF MAC WISEMAN
DYEAR=2007
DGENRE=Country
TTITLE0=ROVIN GAMBLER
TTITLE1=SITTING ON TOP OF THE WORLD
TTITLE2=LITTLE PAL
TTITLE3=PICTURE FROM LIFE'S OTHER SIDE
TTITLE4=THE GEORGIA MAIL
TTITLE5=PRECIOUS MEMORIES
TTITLE6=HOW MANY BISCUITS CAN YOU EAT
TTITLE7=MORE PRETTY GIRLS THAN ONE
TTITLE8=WRECK OF OLD #9
TTITLE9=GRANDFATHER'S CLOCK
TTITLE10=LITTLE BLOSSOM
TTITLE11=CORINA, CORINA
TTITLE12=MIDNIGHT SPECIAL
TTITLE13=TRAMP ON THE STREET
TTITLE14=SOURWOOD MOUNTAIN
TTITLE15=I'LL BE ALL SMILES TONIGHT
TTITLE16=JUST OVER IN GLORY LAND
TTITLE17=MARY OF THE WILD MOOR
TTITLE18=I SAW YOUR FACE IN THE MOON
TTITLE19=WHEN THEY RING THOSE GOLDEN BELLS
TTITLE20=WRECK OF THE OLD 97
TTITLE21=LITTLE MOHEE
TTITLE22=TURKEY IN THE STRAW
TTITLE23=THE BLACK SHEEP
TTITLE24=THE WALTZ YOU SAVED FOR ME
TTITLE25=WILDWOOD FLOWER (INSTRUMENTAL)
EXTD=
EXTT0=
EXTT1=
EXTT2=
EXTT3=
EXTT4=
EXTT5=
EXTT6=
EXTT7=
EXTT8=
EXTT9=
EXTT10=
EXTT11=
EXTT12=
EXTT13=
EXTT14=
EXTT15=
EXTT16=
EXTT17=
EXTT18=
EXTT19=
EXTT20=
EXTT21=
EXTT22=
EXTT23=
EXTT24=
EXTT25=
PLAYORDER=
